<?xml version="1.0" standalone="no"?>
<!DOCTYPE svg PUBLIC "-//W3C//DTD SVG 20010904//EN"
 "http://www.w3.org/TR/2001/REC-SVG-20010904/DTD/svg10.dtd">
<svg version="1.0" xmlns="http://www.w3.org/2000/svg"
 width="960.000000pt" height="960.000000pt" viewBox="0 0 960.000000 960.000000"
 preserveAspectRatio="xMidYMid meet">
<metadata>
Created by potrace 1.11, written by Peter Selinger 2001-2013
</metadata>
<g transform="translate(0.000000,960.000000) scale(0.100000,-0.100000)"
fill="#000000" stroke="none">
<path d="M4792 9563 c-7 -16 -33 -73 -59 -128 -25 -55 -58 -127 -73 -160 -15
-33 -58 -125 -95 -204 -36 -80 -86 -187 -111 -238 -24 -51 -44 -95 -44 -97 0
-2 -25 -57 -56 -122 -70 -151 -67 -144 -284 -614 -101 -217 -199 -429 -218
-470 -35 -75 -118 -256 -187 -405 -58 -127 -70 -154 -124 -268 -28 -60 -51
-110 -51 -112 0 -1 -22 -49 -49 -106 -27 -57 -61 -131 -76 -164 -15 -33 -42
-91 -60 -130 -18 -38 -47 -101 -65 -140 -17 -38 -47 -101 -65 -140 -43 -92
-82 -176 -115 -250 -15 -33 -37 -80 -49 -105 -65 -139 -419 -905 -417 -906 1
-2 969 -409 1106 -466 52 -22 104 -44 115 -49 11 -5 233 -99 494 -209 261
-109 479 -204 484 -209 7 -7 11 -244 11 -681 1 -368 0 -670 0 -670 -1 0 -497
496 -1103 1101 -606 606 -1101 1099 -1101 1096 0 -4 20 -48 44 -99 24 -51 57
-122 74 -158 149 -319 180 -385 253 -538 33 -68 59 -125 59 -127 0 -1 32 -69
71 -151 39 -82 83 -176 99 -209 15 -33 47 -100 70 -150 23 -49 57 -121 75
-160 44 -94 103 -220 158 -335 25 -52 76 -162 115 -245 39 -82 91 -195 117
-250 68 -144 123 -260 160 -340 18 -38 60 -128 94 -199 34 -70 61 -130 61
-131 0 -1 33 -72 74 -156 40 -85 83 -176 96 -204 12 -27 44 -95 70 -151 27
-55 83 -175 125 -265 43 -90 98 -207 122 -259 25 -52 76 -160 113 -240 37 -80
84 -177 103 -217 19 -39 33 -74 31 -76 -3 -2 2 -9 9 -16 12 -9 21 3 51 65 21
42 46 95 55 117 17 38 72 158 197 426 24 51 44 95 44 96 0 2 29 65 65 140 36
76 65 139 65 141 0 2 20 45 44 96 24 51 58 125 76 163 205 446 301 652 375
810 18 39 44 95 58 125 13 30 54 118 89 195 36 77 77 165 91 195 67 147 149
324 187 405 23 50 50 108 60 130 9 22 47 103 83 180 35 77 77 167 92 200 39
85 86 187 130 280 20 44 61 132 90 195 29 63 72 156 95 205 23 50 64 137 90
195 26 58 67 146 90 195 23 50 55 117 70 151 l27 60 -26 12 c-14 6 -71 30
-126 52 -55 23 -113 47 -130 54 -16 8 -59 26 -95 41 -36 15 -78 33 -95 40 -16
7 -86 37 -155 65 -136 57 -167 70 -220 93 -19 8 -107 45 -195 82 -88 37 -173
73 -190 80 -16 7 -160 68 -320 135 -159 67 -303 128 -320 135 -16 8 -59 26
-95 40 -36 15 -83 35 -105 45 -22 9 -61 26 -87 36 -34 14 -48 25 -49 39 -1 25
-1 1305 0 1321 1 7 496 -483 1100 -1087 947 -947 1157 -1154 1103 -1086 -5 6
-39 75 -75 152 -36 77 -89 190 -117 250 -50 104 -80 169 -163 345 -19 41 -54
116 -77 165 -23 50 -57 122 -75 160 -56 120 -149 316 -261 554 -35 73 -64 135
-64 136 0 2 -30 65 -66 141 -36 77 -79 166 -94 199 -15 33 -49 105 -75 160
-26 55 -62 132 -80 170 -18 39 -60 128 -94 199 -34 70 -61 130 -61 131 0 2
-32 70 -71 152 -39 81 -82 173 -96 203 -14 30 -46 98 -70 150 -25 52 -97 205
-160 340 -64 135 -138 292 -165 350 -28 58 -63 132 -78 165 -15 33 -52 112
-82 175 -30 63 -69 147 -87 185 -18 39 -47 100 -64 138 l-32 67 -13 -27z"/>
</g>
</svg>
